<?xml version="1.0" standalone="no"?>
<!DOCTYPE svg PUBLIC "-//W3C//DTD SVG 20010904//EN"
 "http://www.w3.org/TR/2001/REC-SVG-20010904/DTD/svg10.dtd">
<svg version="1.0" xmlns="http://www.w3.org/2000/svg"
 width="700.000000pt" height="700.000000pt" viewBox="0 0 700.000000 700.000000"
 preserveAspectRatio="xMidYMid meet">
<metadata>
Created by potrace 1.11, written by Peter Selinger 2001-2013
</metadata>
<g transform="translate(0.000000,700.000000) scale(0.100000,-0.100000)"
fill="#000000" stroke="none">
<path d="M3329 6906 c-2 -2 -47 -7 -99 -11 -52 -3 -97 -8 -100 -10 -3 -1 -34
-6 -69 -9 -36 -4 -67 -9 -70 -11 -4 -2 -27 -6 -51 -10 -112 -16 -405 -92 -495
-128 -16 -6 -35 -12 -42 -13 -7 -1 -27 -9 -44 -18 -18 -9 -37 -16 -42 -16 -5
0 -28 -9 -51 -19 -23 -11 -63 -29 -91 -41 -286 -126 -568 -302 -820 -514 -71
-59 -346 -334 -392 -391 -218 -270 -319 -425 -452 -692 -147 -295 -240 -577
-305 -928 -2 -11 -7 -45 -11 -75 -4 -30 -9 -64 -11 -75 -8 -41 -17 -193 -18
-285 l-1 -95 2136 -1 c1175 0 2141 -4 2146 -7 6 -4 10 -15 8 -25 -2 -9 -4 -25
-4 -34 -1 -17 -110 -18 -2147 -18 l-2145 0 6 -147 c4 -82 8 -150 10 -153 3 -5
18 -132 18 -157 0 -7 7 -15 16 -17 9 -2 957 -4 2106 -3 l2090 0 -1 -39 c-1
-21 -2 -48 -3 -60 l-1 -21 -2067 -1 c-1138 0 -2079 -1 -2092 -1 -20 -1 -22 -4
-16 -28 4 -16 15 -68 26 -118 10 -49 23 -101 28 -115 5 -14 20 -59 32 -102
l23 -76 1516 -1 c833 0 1526 0 1540 -1 24 -1 25 -1 5 -15 -34 -25 -85 -79
-105 -110 l-19 -30 -1428 1 c-785 0 -1433 -1 -1439 -3 -8 -3 0 -33 23 -86 46
-110 143 -300 157 -309 6 -4 820 -7 1808 -7 l1797 0 268 -62 c147 -34 333 -76
413 -94 l145 -33 -2157 -1 c-1187 -1 -2158 -3 -2158 -6 0 -9 126 -184 196
-272 l73 -91 2580 0 2579 0 69 86 c37 47 98 129 135 182 l68 95 -665 3 c-384
1 -665 6 -665 11 0 5 83 7 196 4 192 -5 195 -4 201 16 3 12 11 21 18 21 20 0
83 78 90 111 5 21 13 29 28 29 12 0 223 1 469 1 l446 -1 60 123 c58 117 122
262 122 276 0 4 -352 7 -782 7 l-783 0 -95 38 c-52 21 -149 55 -215 76 -79 26
-110 39 -90 40 17 1 480 2 1029 3 l999 2 24 75 c41 131 91 360 79 361 -6 0
-494 1 -1083 1 -911 1 -1073 3 -1073 15 0 8 5 34 11 59 9 34 16 44 33 45 11 0
499 1 1083 1 l1062 1 6 56 c4 31 9 67 11 81 5 34 14 147 19 253 l4 87 -454 0
-455 0 -19 40 -19 40 21 1 c12 0 190 1 394 1 330 1 378 -1 418 -17 48 -18 75
-15 75 9 0 9 7 12 19 9 19 -5 20 0 16 98 -5 106 -13 214 -20 259 -2 14 -6 50
-10 80 -49 398 -223 891 -442 1253 -376 621 -905 1087 -1565 1378 -199 87
-567 201 -730 224 -67 10 -109 16 -130 20 -11 3 -46 7 -77 10 -31 4 -67 9 -81
12 -30 6 -545 15 -551 9z m2411 -3380 c69 -21 130 -39 135 -41 6 -2 -228 -4
-519 -4 l-528 -1 6 23 c3 12 6 30 6 39 0 10 9 18 23 20 12 2 186 2 387 2 l365
-1 125 -37z"/>
<path d="M1235 1044 c79 -72 204 -176 278 -232 l68 -52 1974 0 c1085 0 1975 4
1977 8 2 4 32 30 68 57 36 27 67 52 70 55 3 3 14 13 26 21 21 14 131 111 185
162 l29 27 -2363 0 -2362 -1 50 -45z"/>
<path d="M2030 492 c0 -10 312 -143 405 -172 22 -7 49 -16 60 -21 22 -9 102
-33 185 -55 122 -33 362 -79 470 -89 30 -3 91 -9 135 -14 89 -9 481 -7 563 3
28 3 76 8 105 11 71 7 238 37 392 69 118 26 394 118 528 177 51 23 113 50 140
62 26 11 47 23 47 26 0 4 -682 6 -1515 6 -833 0 -1515 -1 -1515 -3z"/>
</g>
</svg>
