<?xml version="1.0" encoding="utf-8"?>
<svg id="master-artboard" viewBox="0 0 70 70" version="1.1" xmlns="http://www.w3.org/2000/svg" x="0px" y="0px" width="70px" height="70px" enable-background="new 0 0 2800 2800"><rect id="ee-background" x="0" y="0" width="70" height="70" style="fill: white; fill-opacity: 0; pointer-events: none;"/>



<g transform="matrix(0.07780083268880846, 0, 0, 0.07779193669557571, -73.43728637695312, -74.12218475341797)">
		<linearGradient id="SVGID_2_" gradientUnits="userSpaceOnUse" x1="1400" y1="995.6241" x2="1400" y2="1864.2832">
			<stop offset="0" style="stop-color:#ECE956"/>
			<stop offset="1" style="stop-color:#EF3F6B"/>
		</linearGradient>
		<path fill="url(#SVGID_2_)" d="M971.9,1482.1c3.7,19.4,8.7,38.3,14.8,56.7h826.5c6.2-18.4,11.1-37.3,14.8-56.7H971.9z"/>
		<linearGradient id="SVGID_3_" gradientUnits="userSpaceOnUse" x1="1400" y1="995.6241" x2="1400" y2="1864.2832">
			<stop offset="0" style="stop-color:#ECE956"/>
			<stop offset="1" style="stop-color:#EF3F6B"/>
		</linearGradient>
		<path fill="url(#SVGID_3_)" d="M1033.3,1635.6c10.7,16.5,22.4,32.3,35.1,47.2h663.1c12.7-14.9,24.5-30.7,35.1-47.2H1033.3z"/>
		<linearGradient id="SVGID_4_" gradientUnits="userSpaceOnUse" x1="1400" y1="995.6241" x2="1400" y2="1864.2832">
			<stop offset="0" style="stop-color:#ECE956"/>
			<stop offset="1" style="stop-color:#EF3F6B"/>
		</linearGradient>
		<path fill="url(#SVGID_4_)" d="M1653,1754.9c18-12.9,35-27.1,50.9-42.5h-607.8c15.8,15.4,32.8,29.6,50.9,42.5H1653z"/>
		<linearGradient id="SVGID_5_" gradientUnits="userSpaceOnUse" x1="1400" y1="995.6241" x2="1400" y2="1864.2832">
			<stop offset="0" style="stop-color:#ECE956"/>
			<stop offset="1" style="stop-color:#EF3F6B"/>
		</linearGradient>
		<path fill="url(#SVGID_5_)" d="M994,1558.9c7,17.9,15.2,35.3,24.4,52h763.1c9.2-16.7,17.4-34,24.4-52H994z"/>
		<linearGradient id="SVGID_6_" gradientUnits="userSpaceOnUse" x1="1400" y1="995.6241" x2="1400" y2="1864.2832">
			<stop offset="0" style="stop-color:#ECE956"/>
			<stop offset="1" style="stop-color:#EF3F6B"/>
		</linearGradient>
		<path fill="url(#SVGID_6_)" d="M1203.6,1789.2c59,29.8,125.7,46.7,196.4,46.7s137.4-16.8,196.4-46.7H1203.6z"/>
		<linearGradient id="SVGID_7_" gradientUnits="userSpaceOnUse" x1="1400" y1="995.6241" x2="1400" y2="1864.2832">
			<stop offset="0" style="stop-color:#ECE956"/>
			<stop offset="1" style="stop-color:#EF3F6B"/>
		</linearGradient>
		<path fill="url(#SVGID_7_)" d="M1835.8,1394.7c-2.8-238.3-196.9-430.5-435.8-430.5s-432.9,192.3-435.8,430.5H1835.8z"/>
		<linearGradient id="SVGID_8_" gradientUnits="userSpaceOnUse" x1="1400" y1="995.6241" x2="1400" y2="1864.2832">
			<stop offset="0" style="stop-color:#ECE956"/>
			<stop offset="1" style="stop-color:#EF3F6B"/>
		</linearGradient>
		<path fill="url(#SVGID_8_)" d="M964.2,1405.3c0.2,20.9,2,41.4,5,61.4h861.5c3.1-20.1,4.8-40.6,5-61.4H964.2z"/>
	</g>
<g transform="matrix(0.2899534106254578, 0, 0, 0.2899534106254578, -64.51565806070963, -158.9041900634766)"><path d="M 390.6452331542969 661.5567016601562 L 399.86663818359375 661.7757568359375 L 429.8866882324219 670.6904907226562 C 433.542040929481 670.6904907226562 419.45496685917715 651.404052734375 413.6378173828125 651.404052734375 L 460.1595458984375 667.9656982421875 C 464.65219848549157 656.7341386385901 412.0670665634928 632.0233163540612 409.4883117675781 638.4701538085938 L 457.3424072265625 640.5 C 448.2666003462204 627.2353481676654 430.389808211978 623.081128320449 436.7809753417969 632.4219360351562 C 453.3047220254882 622.0967696959092 395.40173910097445 622.4479923161763 392.549072265625 630.6585693359375 C 415.21713462309236 630.7373623395347 354.91104912659176 602.0083041450425 337.4886169433594 613.031005859375 L 375.47674560546875 627.39501953125 C 380.8152806223909 626.2646959608218 367.6118131997544 625.2984411325143 349.3828430175781 624.5856323242188 C 339.73535804498573 620.7266999623562 316.0852504043815 629.1710363420455 321.5059814453125 631.3392944335938 L 360.22998046875 638.703857421875 L 343.1661682128906 641.52099609375 C 352.97058016062033 641.588816351349 317.9010484250494 643.3005096086143 325.9814147949219 651.8076782226562 C 326.1866067701333 650.9868822144105 365.6567923187921 652.3543371192121 364.75811767578125 655.9491577148438 C 365.6929190968991 655.0143315863721 378.6278541484086 659.7535613517273 376.58795166015625 661.7935180664062 L 373.88812255859375 694.0733032226562 L 361.95428466796875 717.095703125 L 366.5172424316406 713.4662475585938 C 390.3170169913044 707.5154941362549 387.32809496975017 674.9676181328408 368.2428283691406 711.43896484375 C 359.96759033203125 727.252685546875 380.63715023523883 695.6519158856313 374.5867614746094 709.33544921875 C 379.9148008447123 708.4530938104072 381.90551473053466 694.5649964165636 367.65814208984375 713.2646484375 L 363.4463806152344 719.5548095703125 C 404.3721338320784 691.2038865269491 341.83541828208746 726.223079334487 378.4770812988281 721.6270751953125 C 380.29937874211737 725.0695283621575 415.9669494628906 729.2581176757812 406.7081298828125 728.5491943359375 C 417.1068115234375 734.8093872070312 412.6695556640625 699.8732299804688 411.58880615234375 729.7782592773438 C 433.22777173808646 714.120317966653 346.0112076991304 687.3914604837814 335.5737609863281 710.4691162109375 L 376.63665771484375 722.4676513671875 L 380.6780700683594 710.76953125 L 384.8404846191406 690.0547485351562 L 390.6452331542969 661.5567016601562 Z" class="st0" style="fill: rgb(51, 51, 51);" transform="matrix(1, 0, 0, 1, 0, 0)"/></g><path d="M 32.38792419433594 8.722442626953125 C 30.403470913217898 6.893337155154066 39.26742738546988 10.618460812200462 42.8879280090332 17.722440719604492 C 40.87245875182429 21.144314507932698 45.860276825316866 24.932289857749584 46.05459213256836 24.889108657836914 L 41.721256256103516 23.389108657836914" style="fill: rgb(51, 51, 51); fill-opacity: 1; stroke: rgb(0, 0, 0); stroke-opacity: 1; stroke-width: 0; paint-order: fill;" transform="matrix(0.7746864557266235, 0, 0, 0.7746864557266235, 18.941054026285812, 9.413543383280437)"/><path d="M 45.05459213256836 18.889108657836914 L 40.221256256103516 16.722442626953125 C 42.66304333042066 22.011876320993707 47.39920326690594 15.481729556391343 51.88792419433594 14.389107704162598 C 49.988946651005904 11.099995572860806 38.39303793784191 16.044648606399978 37.38792419433594 14.722442626953125" style="fill: rgb(51, 51, 51); fill-opacity: 1; stroke: rgb(0, 0, 0); stroke-opacity: 1; stroke-width: 0; paint-order: fill;" transform="matrix(0.7746864557266235, 0, 0, 0.7746864557266235, 18.44105466206868, 9.746876080830884)"/><path d="M 42.38792419433594 53.5557746887207 L 44.55459213256836 53.0557746887207" style="fill: rgb(51, 51, 51); fill-opacity: 1; stroke: rgb(0, 0, 0); stroke-opacity: 1; stroke-width: 0; paint-order: fill;" transform="matrix(0.6666641235351562, 0, 0, 0.6666641235351562, 14.490529940943816, 17.685393157385988)"/><path d="M 48.38792419433594 53.88911056518555 L 47.55459213256836 53.722442626953125" style="fill: rgb(51, 51, 51); fill-opacity: 1; stroke: rgb(0, 0, 0); stroke-opacity: 1; stroke-width: 0; paint-order: fill;"/><path d="M 38.221256256103516 55.222442626953125" style="fill: rgb(51, 51, 51); fill-opacity: 1; stroke: rgb(0, 0, 0); stroke-opacity: 1; stroke-width: 0; paint-order: fill;"/><path d="M 40.05459213256836 21.555776596069336" style="fill: rgb(51, 51, 51); fill-opacity: 1; stroke: rgb(0, 0, 0); stroke-opacity: 1; stroke-width: 0; paint-order: fill;"/><g transform="matrix(0.1554975062608719, 0, 0, 0.1554975062608719, -14.612196604410812, -31.467789967854817)"><g id="g-5" transform="matrix(1, 0, 0, 1, 0, 0)">
	<g id="g-6">
		<path class="st0" d="M 353.8253540039062 527.629638671875 C 348.42535400390625 527.629638671875 334.32257690429685 530.0606689453125 331.62257690429686 525.3606689453125 L 311.8070922851562 513.5098999023437 C 309.1070922851562 508.80989990234366 302.676123046875 508.6126770019531 305.37612304687497 503.8126770019531 L 324.11976928710936 497.5210998535156 C 326.81976928710935 492.8210998535156 352.8127075195312 499.8393615722656 358.1127075195312 499.8393615722656 L 391.4126770019531 496.6239074707031 C 396.8126770019531 496.6239074707031 407.7 503.5393615722656 410.4 508.2393615722656 L 442.0055847167969 525.2492614746093 C 444.70558471679686 529.9492614746093 447.9210998535156 538.7210693359375 445.2210998535156 543.4210693359374 L 411.4718078613281 542.4098999023437 C 407.0223837307071 542.7363325279072 416.94689348102435 522.9158238166732 420.25209960937497 544.6788696289062 L 364.5436767578125 531.8169921875 L 353.8253540039062 527.629638671875 Z" style="fill: rgb(51, 51, 51);"/>
	</g>
</g></g><path style="fill: rgb(51, 51, 51); fill-opacity: 1; stroke: rgb(0, 0, 0); stroke-opacity: 1; stroke-width: 0; paint-order: fill;"/></svg>